<svg width="64" height="64" viewBox="0 0 64 64" fill="none" xmlns="http://www.w3.org/2000/svg">
  <circle cx="32" cy="32" r="25" fill="url(#field)" stroke="url(#rim)" stroke-width="2"/>
  <path d="M17 32C21.2 24.8 25.4 21.2 29.6 21.2C36.8 21.2 37.2 42.8 44 42.8C47.1 42.8 49.6 39.7 52 33.6" stroke="url(#signal)" stroke-width="4.2" stroke-linecap="round" stroke-linejoin="round"/>
  <path d="M18 43.5C21.5 47.7 26.6 50.4 32.3 50.4C37.7 50.4 42.7 48 46.1 44" stroke="#0F766E" stroke-width="2.8" stroke-linecap="round" opacity="0.9"/>
  <path d="M18 20.5C21.5 16.3 26.6 13.6 32.3 13.6C37.7 13.6 42.7 16 46.1 20" stroke="#F8FAFC" stroke-width="2.8" stroke-linecap="round" opacity="0.86"/>
  <defs>
    <linearGradient id="field" x1="14" y1="11" x2="50" y2="53" gradientUnits="userSpaceOnUse">
      <stop stop-color="#2563EB"/>
      <stop offset="0.55" stop-color="#14B8A6"/>
      <stop offset="1" stop-color="#84CC16"/>
    </linearGradient>
    <linearGradient id="rim" x1="9" y1="9" x2="55" y2="55" gradientUnits="userSpaceOnUse">
      <stop stop-color="#EFF6FF"/>
      <stop offset="1" stop-color="#CCFBF1"/>
    </linearGradient>
    <linearGradient id="signal" x1="17" y1="21" x2="52" y2="43" gradientUnits="userSpaceOnUse">
      <stop stop-color="#F8FAFC"/>
      <stop offset="1" stop-color="#ECFCCB"/>
    </linearGradient>
  </defs>
</svg>
